<?xml version="1.0" encoding="UTF-8"?>
<svg version="1.1" xmlns="http://www.w3.org/2000/svg" width="512" height="512">
<path d="M0 0 C1.10843262 0.30550781 1.10843262 0.30550781 2.23925781 0.6171875 C20.58446998 5.80605589 37.21760896 14.84801125 53.66552734 24.30053711 C73.1777259 36.32570442 73.1777259 36.32570442 95 40 C97.45502895 38.3277339 99.54059546 36.69950974 101.75 34.75 C134.9761682 6.92868825 172.32503906 -7.16478808 215.80517578 -3.78173828 C241.54903169 -0.78434642 267.51092312 11.07009483 287 28 C287.80695313 28.68578125 288.61390625 29.3715625 289.4453125 30.078125 C315.51403826 52.79632488 332.94767856 84.48974519 337 119 C337.31930668 124.2946982 337.39051981 129.57314729 337.375 134.875 C337.37368576 135.98347794 337.37368576 135.98347794 337.37234497 137.11434937 C337.31239617 152.6315459 335.63982343 167.70604928 333 183 C332.88120483 183.6954895 332.76240967 184.390979 332.64001465 185.10754395 C319.35561027 262.60063041 297.68833306 340.65564435 232 473 C231.33871094 473.90363281 230.67742187 474.80726563 229.99609375 475.73828125 C218.9173171 490.24014547 204.60808319 504.4556032 186 508 C172.73632993 508.98353486 162.43456608 507.75282992 151.75 499.0625 C139.73047297 487.38969009 134.22400857 470.19065916 130.66015625 454.234375 C130.44777313 453.29136536 130.23539001 452.34835571 130.01657104 451.37677002 C126.98631319 437.69036641 124.49454389 423.88983 121.953125 410.10595703 C119.51956451 396.94598349 116.89650281 383.89275955 113.4609375 370.953125 C113.05580429 369.41032867 113.05580429 369.41032867 112.64248657 367.83636475 C109.55751331 356.60574515 105.41040559 342.38609806 97 334 C97 333.34 97 332.68 97 332 C96.46375 331.731875 95.9275 331.46375 95.375 331.1875 C93.64094566 330.32047283 91.93564298 329.39525169 90.25 328.4375 C85.01780165 326.12325842 80.45981333 325.26570635 75 327 C64.46444761 331.69161317 59.2409895 340.69132352 55 351 C47.66149847 370.38126113 43.8889815 390.72097967 40 411 C39.66119859 412.75948413 39.32216132 414.51892285 38.98291016 416.27832031 C38.80950104 417.17770828 38.63609192 418.07709625 38.45742798 419.0037384 C37.92577969 421.75782061 37.39262921 424.5116092 36.859375 427.26538086 C36.17785177 430.78549705 35.50541725 434.30715838 34.83984375 437.83032227 C25.25547086 488.11462977 25.25547086 488.11462977 8 501 C-3.53219353 507.61339057 -14.3154712 509.92590061 -27.4375 507.31640625 C-38.90101304 503.71913198 -47.42253408 497.21834497 -56 489 C-56.72832031 488.34644531 -57.45664063 487.69289063 -58.20703125 487.01953125 C-115.80336408 433.36673111 -138.4110663 325.68977979 -156.50970459 251.99505615 C-156.98667438 250.05422313 -157.46716386 248.11425615 -157.94775391 246.17431641 C-163.09648037 225.26911397 -167.34426952 204.2136102 -171 183 C-171.11706299 182.32455139 -171.23412598 181.64910278 -171.35473633 180.95318604 C-175.92981227 154.33313803 -178.6245656 125.31320912 -171 99 C-170.81808105 98.34128906 -170.63616211 97.68257813 -170.44873047 97.00390625 C-160.40332021 61.31083103 -135.6365424 31.37464777 -103.6875 13.03125 C-72.79504167 -4.21703924 -34.24166934 -9.74466479 0 0 Z M-62 40 C-62.62632324 40.19867676 -63.25264648 40.39735352 -63.89794922 40.60205078 C-90.0550069 49.10867003 -111.19341215 66.34241035 -123.9921875 90.80859375 C-137.88752431 118.88352023 -135.35264943 148.95907163 -130 179 C-129.8835614 179.66132935 -129.7671228 180.32265869 -129.64715576 181.00402832 C-120.21361262 234.49836508 -106.02823164 287.1235858 -88.23535156 338.42773438 C-87.16804529 341.51406351 -86.12098258 344.60587368 -85.0859375 347.703125 C-64.00253146 414.74169572 -64.00253146 414.74169572 -19 466 C-18.01 466 -17.02 466 -16 466 C-12.2340077 458.55133382 -10.0723077 450.91220575 -8.15625 442.828125 C-7.89717865 441.74110794 -7.6381073 440.65409088 -7.3711853 439.53413391 C-4.0497539 425.2999429 -1.52848335 410.9070792 1.02636719 396.51928711 C5.25677077 372.80784339 10.08942742 348.66601853 21 327 C21.50273437 325.98164063 22.00546875 324.96328125 22.5234375 323.9140625 C25.73008589 317.72132884 29.55153193 312.35444898 34 307 C34.47050781 306.38382812 34.94101563 305.76765625 35.42578125 305.1328125 C43.83757779 294.46997182 57.20391228 288.01065757 70.375 285.5625 C88.67391211 283.40313933 105.35300903 287.5771398 120.0625 298.6875 C128.21110401 305.42115262 133.93732746 313.80396741 139 323 C139.72123047 324.26650391 139.72123047 324.26650391 140.45703125 325.55859375 C147.46108848 338.58724903 151.45339649 353.07719836 154.87109375 367.3984375 C155.12672592 368.46739761 155.38235809 369.53635773 155.64573669 370.63771057 C158.9875727 384.88414678 161.58728083 399.27746503 164.25268555 413.66235352 C169.04930798 440.4155104 169.04930798 440.4155104 178 466 C183.63925462 466 187.48220468 461.44846699 191.39453125 457.71484375 C198.56367951 450.22957557 203.81832975 441.92623664 209 433 C209.4125 432.29456055 209.825 431.58912109 210.25 430.86230469 C252.87613468 357.4987307 276.11089447 267.84219175 291 184.8125 C291.14225006 184.02024017 291.28450012 183.22798035 291.43106079 182.41171265 C297.6708444 147.33173476 300.94964882 111.69798025 280.0546875 80.7734375 C263.07290164 57.85125507 240.94481165 42.73392306 212.64697266 37.37939453 C198.75684054 35.38850122 184.1544345 36.04687774 171 41 C170.36723145 41.23605957 169.73446289 41.47211914 169.08251953 41.71533203 C148.58830195 49.53489697 131.74509168 62.90559416 115.33984375 77.125 C111.53903195 80.41289198 107.64692278 83.58269227 103.7421875 86.74609375 C101.33739391 88.72268336 98.97670719 90.74180877 96.6237793 92.77954102 C65.9795604 119.18771777 36.3521926 135.40903198 -4 140 C-4 126.47 -4 112.94 -4 99 C0.29 98.67 4.58 98.34 9 98 C24.0027724 94.28644247 47.05560321 85.41659519 56 72 C55.27635254 71.6282666 54.55270508 71.2565332 53.80712891 70.87353516 C50.41153186 69.1270282 47.01796199 67.37661794 43.625 65.625 C43.00809296 65.30698425 42.39118591 64.98896851 41.75558472 64.66131592 C34.99403567 61.1725268 28.27224805 57.64285155 21.67822266 53.84350586 C-3.63023935 39.26763073 -33.15559153 30.80172293 -62 40 Z " fill="#15CBC8" transform="translate(175,4)"/>
</svg>
